HIERARCHY
ROOT Hips
{
    OFFSET 0.000000 0.000000 0.000000
    CHANNELS 6 Xposition Yposition Zposition Zrotation Xrotation Yrotation
    JOINT Spine
    {
        OFFSET -0.000000 0.083210 0.000000
        CHANNELS 3 Zrotation Xrotation Yrotation
        JOINT Spine1
        {
            OFFSET -0.000000 0.256334 0.000000
            CHANNELS 3 Zrotation Xrotation Yrotation
            JOINT Neck
            {
                OFFSET -0.000000 0.275576 0.002912
                CHANNELS 3 Zrotation Xrotation Yrotation
                JOINT Head
                {
                    OFFSET -0.000000 0.157287 0.020295
                    CHANNELS 3 Zrotation Xrotation Yrotation
                    End Site
                    {
                        OFFSET -0.000000 0.202951 0.000000
                    }
                }
            }
            JOINT LeftShoulder
            {
                OFFSET 0.041044 0.235234 -0.000041
                CHANNELS 3 Zrotation Xrotation Yrotation
                JOINT LeftArm
                {
                    OFFSET 0.117964 0.000000 0.000000
                    CHANNELS 3 Zrotation Xrotation Yrotation
                    JOINT LeftForeArm
                    {
                        OFFSET 0.291248 0.000000 0.000000
                        CHANNELS 3 Zrotation Xrotation Yrotation
                        JOINT LeftHand
                        {
                            OFFSET 0.245673 0.000000 0.000000
                            CHANNELS 3 Zrotation Xrotation Yrotation
                            End Site
                            {
                                OFFSET 0.152213 0.000000 0.000000
                            }
                        }
                    }
                }
            }
            JOINT RightShoulder
            {
                OFFSET -0.040052 0.235234 -0.000041
                CHANNELS 3 Zrotation Xrotation Yrotation
                JOINT RightArm
                {
                    OFFSET -0.117964 0.000000 0.000000
                    CHANNELS 3 Zrotation Xrotation Yrotation
                    JOINT RightForeArm
                    {
                        OFFSET -0.291248 0.000000 0.000000
                        CHANNELS 3 Zrotation Xrotation Yrotation
                        JOINT RightHand
                        {
                            OFFSET -0.245673 0.000000 0.000000
                            CHANNELS 3 Zrotation Xrotation Yrotation
                            End Site
                            {
                                OFFSET -0.152213 0.000000 0.000000
                            }
                        }
                    }
                }
            }
        }
    }
    JOINT LeftUpLeg
    {
        OFFSET 0.101475 0.000000 0.000000
        CHANNELS 3 Zrotation Xrotation Yrotation
        JOINT LeftLeg
        {
            OFFSET -0.000000 -0.446535 0.000000
            CHANNELS 3 Zrotation Xrotation Yrotation
            JOINT LeftFoot
            {
                OFFSET -0.000000 -0.400037 0.000000
                CHANNELS 3 Zrotation Xrotation Yrotation
                JOINT LeftToeBase
                {
                    OFFSET -0.000000 -0.065959 0.152213
                    CHANNELS 3 Zrotation Xrotation Yrotation
                    End Site
                    {
                        OFFSET -0.000000 0.000000 0.040590
                    }
                }
            }
        }
    }
    JOINT RightUpLeg
    {
        OFFSET -0.101475 0.000000 0.000000
        CHANNELS 3 Zrotation Xrotation Yrotation
        JOINT RightLeg
        {
            OFFSET -0.000000 -0.446535 0.000000
            CHANNELS 3 Zrotation Xrotation Yrotation
            JOINT RightFoot
            {
                OFFSET -0.000000 -0.400037 0.000000
                CHANNELS 3 Zrotation Xrotation Yrotation
                JOINT RightToeBase
                {
                    OFFSET -0.000000 -0.065959 0.152213
                    CHANNELS 3 Zrotation Xrotation Yrotation
                    End Site
                    {
                        OFFSET -0.000000 0.000000 0.040590
                    }
                }
            }
        }
    }
}
MOTION
Frames:    9
Frame Time:    0.008333
0.271206    0.858886    0.451668    -6.540787    -20.322849    -16.066229    -2.261139    -3.481894    2.044457    -6.565409    3.045555    0.872943    -5.185375    15.238525    5.151254    8.531716    -29.256096    5.111890    7.665321    -2.745409    -13.061839    -16.950064    4.669079    -14.734397    10.257064    -10.159177    -16.402870    14.946810    -9.431666    -5.671106    -13.832192    -7.250229    18.743290    26.852646    -4.708826    -0.695132    -31.539726    -47.954079    45.996346    21.745630    -35.757057    13.743946    23.015926    4.270241    -2.206270    -2.915900    43.331738    -3.496292    -19.140779    -21.262997    -6.688046    0.409372    2.575048    -3.784740    -22.873707    12.065104    1.442534    6.899800    60.387238    6.773657    23.747818    -4.073363    -17.871191    -1.358063    -27.181141    -5.107717    
0.272415    0.858260    0.452952    -6.581289    -20.312305    -16.291306    -2.155686    -3.273410    1.967905    -6.494275    3.020918    0.842112    -5.732767    15.470167    5.075660    8.176231    -28.588636    4.772699    7.573224    -2.852209    -12.935366    -17.113779    4.074906    -14.391060    10.864492    -10.606251    -17.050943    14.811224    -9.713163    -5.587412    -14.111464    -7.483602    18.594875    26.992542    -3.286053    -0.589097    -33.097557    -49.166046    45.269600    21.295864    -37.073807    12.597971    23.022129    4.372603    -2.037258    -3.097437    43.533623    -3.479491    -19.005032    -21.515091    -6.627552    0.413652    2.573993    -3.824610    -23.165703    11.600413    1.631791    6.767395    60.897476    7.202950    22.927603    -4.596380    -17.224785    -1.101399    -24.739817    -4.519869    
0.273343    0.857518    0.454057    -6.641521    -20.299875    -16.468166    -2.043131    -3.055405    1.891153    -6.365778    2.971815    0.808370    -6.424032    15.950349    5.002574    7.946030    -27.959419    4.404196    7.418582    -2.665093    -12.895870    -17.241621    3.195046    -14.109492    11.667884    -10.998433    -17.854404    14.507456    -9.891146    -5.604204    -14.562995    -7.796784    18.520079    27.589428    -1.947773    -0.595150    -35.083569    -50.611469    44.419266    21.160053    -38.488308    11.900805    23.053576    4.406565    -2.060791    -3.361953    43.794792    -3.368263    -18.872925    -21.768810    -6.509918    0.413670    2.525754    -3.839554    -23.382595    11.267075    1.908843    6.767155    61.122993    7.562773    22.566862    -6.074482    -16.517981    -0.815405    -22.365664    -3.668763    
0.273981    0.856745    0.455014    -6.682905    -20.276247    -16.577305    -1.940640    -2.924151    1.807455    -6.325019    2.989088    0.779156    -6.869414    16.772249    4.917108    7.651845    -27.521479    4.074679    7.354521    -2.471273    -12.907394    -17.376104    2.378748    -13.906295    12.545315    -11.499750    -18.804762    14.779154    -10.161288    -5.576093    -14.993258    -8.323759    18.418564    28.434689    -1.075298    -0.670715    -36.964390    -51.803455    43.871304    21.415913    -39.475327    11.681861    23.081221    4.372609    -2.163603    -3.616637    44.071720    -3.231982    -18.776564    -21.970961    -6.394749    0.414445    2.459643    -3.867226    -23.534901    11.082888    2.096665    6.732772    60.858898    7.587264    22.163948    -7.753892    -15.431919    -0.576370    -20.505907    -2.803563    
0.274306    0.856025    0.455764    -6.697152    -20.220531    -16.641727    -1.840153    -2.798098    1.730327    -6.432642    2.949600    0.752954    -7.114605    17.657799    4.832574    7.540303    -26.875366    3.802216    7.445173    -2.414766    -12.800257    -17.558964    1.973625    -13.921388    13.663872    -12.099280    -19.741188    15.097799    -10.490046    -5.645107    -15.077293    -8.483581    18.231585    28.872141    -1.110360    -0.620647    -38.326580    -52.645336    44.077129    21.893301    -40.017792    11.218106    23.114693    4.275577    -2.335923    -3.893693    44.332176    -2.939152    -18.918245    -22.131937    -6.425095    0.430046    2.609005    -3.964992    -23.603941    10.937243    2.189903    6.752641    60.178379    7.653630    21.099277    -9.300106    -14.662889    -0.565418    -20.077785    -2.802349    
0.274284    0.855397    0.456304    -6.686076    -20.145369    -16.654190    -1.800913    -2.690942    1.661037    -6.535716    2.980931    0.733935    -7.128417    18.346409    4.693733    7.249314    -25.997969    3.516908    7.552443    -2.553844    -12.600773    -17.692675    1.502592    -14.033720    14.650893    -12.488711    -20.896166    15.205852    -10.568432    -5.671593    -15.064659    -8.440392    17.887899    29.036627    -1.877123    -0.479125    -38.848602    -53.209705    45.164188    22.387735    -40.219669    10.828321    23.145947    4.124446    -2.489221    -4.122365    44.570427    -2.607386    -18.956789    -22.157148    -6.507781    0.432779    2.518448    -4.019127    -23.591125    10.882333    2.122045    6.648868    59.142853    8.317466    19.878471    -11.257223    -14.977003    -0.536684    -20.012466    -2.667679    
0.273840    0.854805    0.456537    -6.672339    -20.005140    -16.659681    -1.804152    -2.621480    1.598003    -6.603003    3.018536    0.716906    -7.063704    18.849621    4.518593    6.967686    -24.761957    3.211344    7.677190    -2.845154    -12.355691    -17.855907    1.306408    -14.180123    15.755038    -12.909220    -22.144855    16.057554    -10.650854    -5.645620    -14.991029    -8.476574    17.544750    29.061781    -3.162476    -0.487404    -38.428547    -53.539944    47.149345    22.893988    -40.177540    10.452668    23.250399    3.901386    -2.590334    -4.378329    44.784004    -2.277399    -19.014338    -22.110058    -6.613265    0.436447    2.397255    -4.092926    -23.449570    10.860521    1.888986    6.381997    57.837460    9.120367    18.640558    -13.465426    -16.041731    -0.511464    -19.999556    -2.543813    
0.273157    0.854313    0.456594    -6.661670    -19.863583    -16.640846    -1.858105    -2.528262    1.545994    -6.652789    3.024979    0.701663    -6.825101    19.292599    4.282721    6.635650    -23.356966    2.892604    7.853987    -3.150650    -12.129515    -18.049744    0.964003    -14.384285    16.938261    -13.046050    -23.403240    15.655706    -10.376369    -5.880197    -14.844414    -8.754934    17.270794    29.143129    -3.939654    -0.688292    -38.751522    -54.015442    48.152077    23.590893    -40.297947    10.388601    23.350933    3.644416    -2.579131    -4.437039    45.013550    -2.014999    -19.173906    -21.961742    -6.870324    0.440194    2.245286    -4.179452    -23.214495    10.921701    1.548169    6.082616    56.322258    9.701595    17.312826    -15.858451    -17.756296    -0.353956    -19.236073    -1.822181    
0.272106    0.853805    0.456434    -6.704285    -19.705433    -16.631273    -1.922550    -2.377599    1.500761    -6.666315    2.969931    0.683599    -6.453720    19.457067    3.994541    6.376095    -21.654898    2.574864    8.103447    -3.492006    -11.916911    -18.283813    0.613213    -14.560116    18.010298    -13.076876    -24.778387    16.228338    -10.012204    -6.047972    -14.715830    -9.096230    16.896688    29.203081    -4.342670    -0.814480    -39.420555    -54.528503    48.382298    24.280447    -40.545647    10.575917    23.551319    3.366658    -2.519937    -4.473170    45.250797    -1.858907    -19.327158    -21.795107    -7.105274    0.442107    2.078733    -4.255696    -22.841719    11.088402    1.297176    6.011070    54.553616    9.331425    15.889268    -18.016870    -19.362181    -0.209627    -17.494307    -1.172542    
